<?xml version="1.0" standalone="no"?>
<!DOCTYPE svg PUBLIC "-//W3C//DTD SVG 20010904//EN"
 "http://www.w3.org/TR/2001/REC-SVG-20010904/DTD/svg10.dtd">
<svg version="1.0" xmlns="http://www.w3.org/2000/svg"
 width="500.000000pt" height="500.000000pt" viewBox="0 0 500.000000 500.000000"
 preserveAspectRatio="xMidYMid meet">

<g transform="translate(0.000000,500.000000) scale(0.100000,-0.100000)"
fill="#000000" stroke="none">
<path d="M2371 3014 c-169 -45 -305 -170 -372 -339 -33 -86 -34 -251 -1 -347
59 -169 204 -303 374 -343 185 -43 373 9 503 140 223 225 202 600 -44 788
-136 104 -308 142 -460 101z m317 -490 c2 -191 0 -244 -11 -252 -10 -9 -60 16
-213 104 -216 125 -234 138 -218 154 24 24 410 240 424 237 13 -2 15 -38 18
-243z"/>
</g>
</svg>
